<svg id="visual" viewBox="0 0 900 600" width="900" height="600" xmlns="http://www.w3.org/2000/svg" xmlns:xlink="http://www.w3.org/1999/xlink" version="1.1"><path d="M0 275L75 286.3C150 297.7 300 320.3 450 321.7C600 323 750 303 825 293L900 283L900 601L825 601C750 601 600 601 450 601C300 601 150 601 75 601L0 601Z" fill="#333333"></path><path d="M0 298L75 303C150 308 300 318 450 324.8C600 331.7 750 335.3 825 337.2L900 339L900 601L825 601C750 601 600 601 450 601C300 601 150 601 75 601L0 601Z" fill="#2d2d2d"></path><path d="M0 414L75 411.3C150 408.7 300 403.3 450 392C600 380.7 750 363.3 825 354.7L900 346L900 601L825 601C750 601 600 601 450 601C300 601 150 601 75 601L0 601Z" fill="#262626"></path><path d="M0 429L75 430.3C150 431.7 300 434.3 450 430C600 425.7 750 414.3 825 408.7L900 403L900 601L825 601C750 601 600 601 450 601C300 601 150 601 75 601L0 601Z" fill="#202020"></path><path d="M0 478L75 470.2C150 462.3 300 446.7 450 442.2C600 437.7 750 444.3 825 447.7L900 451L900 601L825 601C750 601 600 601 450 601C300 601 150 601 75 601L0 601Z" fill="#1a1a1a"></path><path d="M0 467L75 469.3C150 471.7 300 476.3 450 480.7C600 485 750 489 825 491L900 493L900 601L825 601C750 601 600 601 450 601C300 601 150 601 75 601L0 601Z" fill="#141414"></path><path d="M0 500L75 502.3C150 504.7 300 509.3 450 508.5C600 507.7 750 501.3 825 498.2L900 495L900 601L825 601C750 601 600 601 450 601C300 601 150 601 75 601L0 601Z" fill="#0b0b0b"></path><path d="M0 533L75 534.7C150 536.3 300 539.7 450 545.2C600 550.7 750 558.3 825 562.2L900 566L900 601L825 601C750 601 600 601 450 601C300 601 150 601 75 601L0 601Z" fill="#000000"></path></svg>